<?xml version="1.0" encoding="utf-8"?>
<!-- Generator: Adobe Illustrator 27.2.0, SVG Export Plug-In . SVG Version: 6.00 Build 0)  -->
<svg version="1.1" id="Layer_1" xmlns="http://www.w3.org/2000/svg" xmlns:xlink="http://www.w3.org/1999/xlink" x="0px" y="0px"
	 viewBox="0 0 46 47" style="enable-background:new 0 0 46 47;" xml:space="preserve">
<style type="text/css">
	.st0{fill:#F18F1B;}
</style>
<path class="st0" d="M42,46.4H28.5c-0.6,0-1-0.4-1-1s0.4-1,1-1H42c0.5,0,0.9-0.2,1.2-0.5c0.3-0.3,0.5-0.8,0.5-1.3V19
	c0-0.3-0.1-0.6-0.2-0.8c-0.1-0.2-0.3-0.5-0.5-0.6L23.9,3c-0.6-0.5-1.5-0.5-2.1,0L2.7,17.6c-0.2,0.2-0.4,0.4-0.5,0.6
	C2.1,18.4,2,18.7,2,19v23.6c0,0.5,0.2,0.9,0.5,1.3c0.3,0.3,0.8,0.5,1.2,0.5h10.8c0.6,0,1,0.4,1,1s-0.4,1-1,1H3.7
	c-1,0-1.9-0.4-2.6-1.1C0.4,44.6,0,43.6,0,42.6V19c0-0.6,0.1-1.2,0.4-1.7c0.3-0.5,0.6-1,1.1-1.3L20.6,1.4c1.3-1,3.2-1,4.5,0L44.3,16
	c0.5,0.4,0.8,0.8,1.1,1.3c0.3,0.5,0.4,1.1,0.4,1.7v23.6c0,1-0.4,2-1.1,2.7C44,46,43,46.4,42,46.4z M24.8,24.2c0.8-0.8,1.1-1.9,1.1-3
	c0-0.3-0.1-0.6-0.4-0.8c-0.2-0.2-0.5-0.4-0.9-0.4c-0.3,0-0.6,0.1-0.9,0.4c-0.2,0.2-0.4,0.5-0.4,0.8c0,0.6-0.2,1.1-0.5,1.4
	c-0.3,0.3-0.8,0.6-1.5,0.6c-0.7,0-1.2-0.3-1.5-0.6c-0.3-0.4-0.5-0.9-0.5-1.3V18c0-1,0.4-1.9,1.1-2.5c0.7-0.7,1.6-1.1,2.6-1.1h5.1
	c0.8,0,1.6,0.2,2.3,0.7l4.5,2.7c0.2,0.1,0.3,0.3,0.4,0.4c0.1,0.2,0.2,0.4,0.2,0.6v2.4c0,1-0.4,1.9-1.1,2.5c-0.7,0.7-1.6,1.1-2.6,1.1
	h-0.4V40c1.5,0.1,2.6,0.6,3.3,1.5c0.4,0.6,0.6,1.2,0.7,1.8c0.1,0.6,0.1,1.2,0.1,1.7v0.1c0,0.3-0.1,0.6-0.4,0.8
	c-0.2,0.2-0.5,0.4-0.9,0.4h-7.6c0.1-0.2,0.1-0.3,0.1-0.5v-6.7c1.3-0.1,2.1-1.7,1.3-3l-0.4-0.7c-0.3-0.6-0.9-0.9-1.5-0.9h-1.1V34
	c0-0.5-0.4-1-0.9-1c-0.5,0-1.1,0.2-1.4,0.7c-0.4,0.4-0.6,1-0.6,1.6v3c-1,0.1-1.8,0.7-2.3,1.4c-0.6,0.9-1,2-1.2,3
	c-0.2,1.1-0.3,2.1-0.3,2.9c0,0.3,0,0.5,0,0.7h-0.7c-0.2,0-0.4-0.1-0.6-0.3c-0.2-0.2-0.4-0.4-0.5-0.7c-0.1-0.3-0.2-0.6-0.1-0.9
	c0-0.3,0.2-0.6,0.4-0.8l0.7-0.9c0.5-0.6,0.8-1.4,0.8-2.3c0-0.9-0.3-1.7-0.9-2.3l-0.7-0.8c-0.1-0.1-0.2-0.1-0.3-0.1
	c-0.1,0-0.2,0.1-0.3,0.2c-0.1,0.1-0.1,0.2-0.1,0.4s0,0.3,0.1,0.4l0.7,0.8c0.4,0.4,0.6,0.9,0.6,1.5c0,0.6-0.2,1.1-0.5,1.5l-0.7,0.9
	c-0.3,0.4-0.5,0.9-0.6,1.4c-0.1,0.5,0,1.1,0.2,1.6c0.1,0.2,0.2,0.4,0.3,0.5h-4.9c-1.4,0-2.7-0.4-3.7-1.3c-1.1-0.8-1.9-2-2.2-3.2
	c-0.4-1.3-0.3-2.7,0.2-3.9s1.4-2.3,2.6-3c0.3-0.2,0.6-0.2,0.9-0.1c0.3,0.1,0.6,0.3,0.7,0.5c0.2,0.3,0.2,0.6,0.1,0.9
	c-0.1,0.3-0.3,0.6-0.6,0.7c-0.7,0.4-1.3,1.1-1.6,1.8c-0.3,0.8-0.4,1.6-0.1,2.4c0.2,0.8,0.7,1.5,1.3,2c0.7,0.5,1.5,0.8,2.3,0.8
	c0.5,0,0.8-0.1,1-0.3c0.2-0.2,0.4-0.4,0.5-0.7c0.2-0.3,0.3-0.7,0.3-1.1v-0.1l0-0.2c0-1.2,0.2-2.3,0.4-3.5c0.4-2.1,1.3-4.7,3.1-6.6
	c1.4-1.4,2.1-3.4,2.5-5.4c0.1-0.4,0.1-0.8,0.2-1.1c0.6,0.3,1.4,0.5,2.2,0.5C22.9,25.6,24,25.1,24.8,24.2z"/>
</svg>
